<svg width="30" height="31" viewBox="0 0 30 31" fill="none" xmlns="http://www.w3.org/2000/svg">
<g clip-path="url(#clip0_263_438)">
<path d="M10.1886 23.7727C10.1886 23.8893 10.0545 23.9826 9.8854 23.9826C9.69299 24.0001 9.55889 23.9068 9.55889 23.7727C9.55889 23.6561 9.69299 23.5628 9.86208 23.5628C10.037 23.5453 10.1886 23.6386 10.1886 23.7727ZM8.37527 23.5103C8.33446 23.627 8.45107 23.7611 8.62599 23.796C8.77759 23.8543 8.9525 23.796 8.98749 23.6794C9.02247 23.5628 8.91169 23.4287 8.73677 23.3762C8.58518 23.3354 8.41609 23.3937 8.37527 23.5103ZM10.9524 23.4112C10.7833 23.452 10.6667 23.5628 10.6842 23.6969C10.7017 23.8135 10.8533 23.8893 11.0282 23.8485C11.1973 23.8077 11.3139 23.6969 11.2964 23.5803C11.2789 23.4695 11.1215 23.3937 10.9524 23.4112ZM14.7889 1.06836C6.70189 1.06836 0.515625 7.20798 0.515625 15.295C0.515625 21.7612 4.58538 27.2944 10.3985 29.2418C11.1448 29.3759 11.4072 28.9153 11.4072 28.5363C11.4072 28.1748 11.3897 26.1808 11.3897 24.9563C11.3897 24.9563 7.30827 25.8309 6.45118 23.2188C6.45118 23.2188 5.78649 21.5221 4.83027 21.0848C4.83027 21.0848 3.49506 20.1694 4.92356 20.1869C4.92356 20.1869 6.37538 20.3035 7.17417 21.6912C8.45107 23.9418 10.5909 23.2946 11.4247 22.9098C11.5588 21.9769 11.9378 21.3297 12.3576 20.9449C9.09827 20.5834 5.80981 20.1111 5.80981 14.5021C5.80981 12.8986 6.25294 12.094 7.18583 11.0678C7.03424 10.6889 6.53863 9.12625 7.33743 7.10886C8.55602 6.72987 11.3605 8.68312 11.3605 8.68312C12.5267 8.35661 13.7802 8.18752 15.0222 8.18752C16.2641 8.18752 17.5177 8.35661 18.6838 8.68312C18.6838 8.68312 21.4883 6.72404 22.7069 7.10886C23.5057 9.13208 23.0101 10.6889 22.8585 11.0678C23.7914 12.0999 24.3628 12.9045 24.3628 14.5021C24.3628 20.1286 20.9286 20.5775 17.6693 20.9449C18.2057 21.4055 18.6605 22.2801 18.6605 23.6503C18.6605 25.6152 18.643 28.0465 18.643 28.5247C18.643 28.9036 18.9112 29.3643 19.6517 29.2302C25.4823 27.2944 29.4354 21.7612 29.4354 15.295C29.4354 7.20798 22.876 1.06836 14.7889 1.06836ZM6.18297 21.1781C6.10717 21.2364 6.12466 21.3705 6.22378 21.4813C6.31707 21.5746 6.45118 21.6154 6.52697 21.5396C6.60277 21.4813 6.58528 21.3472 6.48616 21.2364C6.39287 21.1431 6.25877 21.1023 6.18297 21.1781ZM5.55326 20.7058C5.51245 20.7816 5.57076 20.8749 5.68737 20.9332C5.78066 20.9915 5.89727 20.974 5.93808 20.8924C5.9789 20.8166 5.92059 20.7233 5.80398 20.665C5.68737 20.63 5.59408 20.6475 5.55326 20.7058ZM7.44238 22.7815C7.34909 22.8573 7.38407 23.0322 7.51818 23.143C7.65228 23.2771 7.82137 23.2946 7.89716 23.2013C7.97296 23.1255 7.93798 22.9506 7.82137 22.8398C7.69309 22.7057 7.51818 22.6882 7.44238 22.7815ZM6.77769 21.9244C6.6844 21.9827 6.6844 22.1343 6.77769 22.2684C6.87098 22.4025 7.02841 22.4608 7.1042 22.4025C7.19749 22.3267 7.19749 22.1751 7.1042 22.041C7.02257 21.9069 6.87098 21.8486 6.77769 21.9244Z" fill="#3B82F6"/>
</g>
<defs>
<clipPath id="clip0_263_438">
<rect width="29.8527" height="29.8527" fill="white" transform="translate(0.0507812 0.601562)"/>
</clipPath>
</defs>
</svg>