<svg width="16" height="17" viewBox="0 0 16 17" fill="none" xmlns="http://www.w3.org/2000/svg">
<g clip-path="url(#clip0_253_250)">
<path d="M7.80195 16.2992C12.1098 16.2992 15.602 12.807 15.602 8.49922C15.602 4.1914 12.1098 0.699219 7.80195 0.699219C3.49413 0.699219 0.00195312 4.1914 0.00195312 8.49922C0.00195312 12.807 3.49413 16.2992 7.80195 16.2992Z" fill="#3B82F6"/>
<path d="M9.26008 7.33119C9.6454 6.94587 9.85444 6.43887 9.85444 5.89287C9.85444 5.41622 9.68713 4.95469 9.38176 4.58871L10.5642 3.40623L10.3006 3.15039L9.11812 4.33287C8.75308 4.02867 8.30068 3.86019 7.82176 3.86019C7.41973 3.86046 7.02681 3.97986 6.69264 4.2033C6.35841 4.42674 6.09791 4.7442 5.94401 5.11559C5.79011 5.48698 5.74972 5.89565 5.82793 6.28999C5.90613 6.68433 6.09944 7.04665 6.38344 7.33119C6.7204 7.66815 7.16032 7.87875 7.633 7.91931V9.41847C7.15928 9.45773 6.71559 9.66658 6.38344 10.0066C6.00281 10.3885 5.78908 10.9057 5.78908 11.4449C5.78908 11.9841 6.00281 12.5013 6.38344 12.8832C6.76876 13.2686 7.27576 13.4776 7.82176 13.4776C8.08884 13.4784 8.35352 13.4263 8.60039 13.3243C8.84726 13.2223 9.07145 13.0724 9.26008 12.8832C9.6454 12.4979 9.85444 11.9909 9.85444 11.4449C9.85444 10.8989 9.6454 10.3919 9.26008 10.0066C8.92312 9.66963 8.4832 9.45903 8.01052 9.41847V7.91931C8.4843 7.88038 8.92812 7.67147 9.26008 7.33119ZM8.99644 10.2687C9.30688 10.5854 9.48316 10.9988 9.48316 11.4434C9.48348 11.6616 9.44071 11.8777 9.35712 12.0793C9.2736 12.2809 9.15101 12.464 8.99644 12.618C8.686 12.9347 8.26636 13.1048 7.82176 13.1048C7.60355 13.1051 7.38743 13.0623 7.1858 12.9787C6.98417 12.8952 6.80113 12.7726 6.64708 12.618C6.33664 12.3014 6.16036 11.888 6.16036 11.4434C6.16 11.2251 6.20283 11.009 6.28636 10.8074C6.3699 10.6058 6.49249 10.4227 6.64708 10.2687C6.95752 9.95199 7.37716 9.78195 7.82176 9.78195C8.26792 9.78351 8.686 9.95199 8.99644 10.2687ZM7.82176 7.56051C7.60355 7.56084 7.38743 7.51807 7.1858 7.43448C6.98417 7.35095 6.80113 7.22836 6.64708 7.07379C6.33664 6.75711 6.16036 6.34371 6.16036 5.89911C6.16015 5.68091 6.20304 5.46481 6.28657 5.26323C6.37009 5.06164 6.4926 4.87855 6.64708 4.72443C6.95752 4.40775 7.37716 4.23771 7.82176 4.23771C8.03996 4.23736 8.25609 4.28018 8.45772 4.36371C8.65935 4.44725 8.84239 4.56984 8.99644 4.72443C9.31312 5.03487 9.48316 5.45451 9.48316 5.89911C9.48348 6.11734 9.44071 6.33347 9.35712 6.53508C9.2736 6.73668 9.15101 6.91977 8.99644 7.07379C8.686 7.39203 8.26792 7.56051 7.82176 7.56051Z" fill="white"/>
</g>
<defs>
<clipPath id="clip0_253_250">
<rect width="15.6" height="15.6" fill="white" transform="translate(0.00195312 0.699219)"/>
</clipPath>
</defs>
</svg>